<mxfile host="app.diagrams.net" modified="2020-08-11T16:08:04.463Z" agent="5.0 (Macintosh)" etag="BrnbWGi_QcEs6f-VemAG" version="13.6.2" type="github">
  <diagram id="3IAwDomSX4GTOxIave0a" name="Page-1">
    <mxGraphModel dx="873" dy="593" grid="1" gridSize="10" guides="1" tooltips="1" connect="1" arrows="1" fold="1" page="1" pageScale="1" pageWidth="850" pageHeight="1100" math="0" shadow="0">
      <root>
        <mxCell id="0" />
        <mxCell id="1" parent="0" />
        <mxCell id="mdlQwKb84h5tCR9vQMFx-60" value="" style="edgeStyle=entityRelationEdgeStyle;fontSize=12;html=1;endArrow=ERzeroToMany;startArrow=ERmandOne;entryX=0.006;entryY=-0.11;entryDx=0;entryDy=0;entryPerimeter=0;exitX=1.009;exitY=-0.061;exitDx=0;exitDy=0;exitPerimeter=0;" edge="1" parent="1" source="bAAhYgV04LeSds4EKRLH-11" target="mdlQwKb84h5tCR9vQMFx-21">
          <mxGeometry width="100" height="100" relative="1" as="geometry">
            <mxPoint x="270" y="130" as="sourcePoint" />
            <mxPoint x="390" y="120" as="targetPoint" />
          </mxGeometry>
        </mxCell>
        <mxCell id="mdlQwKb84h5tCR9vQMFx-14" value="Notes" style="shape=table;startSize=30;container=1;collapsible=1;childLayout=tableLayout;fixedRows=1;rowLines=0;fontStyle=1;align=center;resizeLast=1;" vertex="1" parent="1">
          <mxGeometry x="350" y="240" width="180" height="150" as="geometry" />
        </mxCell>
        <mxCell id="mdlQwKb84h5tCR9vQMFx-15" value="" style="shape=partialRectangle;collapsible=0;dropTarget=0;pointerEvents=0;fillColor=none;top=0;left=0;bottom=1;right=0;points=[[0,0.5],[1,0.5]];portConstraint=eastwest;" vertex="1" parent="mdlQwKb84h5tCR9vQMFx-14">
          <mxGeometry y="30" width="180" height="20" as="geometry" />
        </mxCell>
        <mxCell id="mdlQwKb84h5tCR9vQMFx-16" value="PK" style="shape=partialRectangle;connectable=0;fillColor=none;top=0;left=0;bottom=0;right=0;fontStyle=1;overflow=hidden;" vertex="1" parent="mdlQwKb84h5tCR9vQMFx-15">
          <mxGeometry width="30" height="20" as="geometry" />
        </mxCell>
        <mxCell id="mdlQwKb84h5tCR9vQMFx-17" value="id" style="shape=partialRectangle;connectable=0;fillColor=none;top=0;left=0;bottom=0;right=0;align=left;spacingLeft=6;fontStyle=5;overflow=hidden;" vertex="1" parent="mdlQwKb84h5tCR9vQMFx-15">
          <mxGeometry x="30" width="150" height="20" as="geometry" />
        </mxCell>
        <mxCell id="mdlQwKb84h5tCR9vQMFx-18" value="" style="shape=partialRectangle;collapsible=0;dropTarget=0;pointerEvents=0;fillColor=none;top=0;left=0;bottom=0;right=0;points=[[0,0.5],[1,0.5]];portConstraint=eastwest;" vertex="1" parent="mdlQwKb84h5tCR9vQMFx-14">
          <mxGeometry y="50" width="180" height="30" as="geometry" />
        </mxCell>
        <mxCell id="mdlQwKb84h5tCR9vQMFx-19" value="" style="shape=partialRectangle;connectable=0;fillColor=none;top=0;left=0;bottom=0;right=0;editable=1;overflow=hidden;" vertex="1" parent="mdlQwKb84h5tCR9vQMFx-18">
          <mxGeometry width="30" height="30" as="geometry" />
        </mxCell>
        <mxCell id="mdlQwKb84h5tCR9vQMFx-20" value="Row 1" style="shape=partialRectangle;connectable=0;fillColor=none;top=0;left=0;bottom=0;right=0;align=left;spacingLeft=6;overflow=hidden;" vertex="1" parent="mdlQwKb84h5tCR9vQMFx-18">
          <mxGeometry x="30" width="150" height="30" as="geometry" />
        </mxCell>
        <mxCell id="mdlQwKb84h5tCR9vQMFx-21" value="" style="shape=partialRectangle;collapsible=0;dropTarget=0;pointerEvents=0;fillColor=none;top=0;left=0;bottom=0;right=0;points=[[0,0.5],[1,0.5]];portConstraint=eastwest;" vertex="1" parent="mdlQwKb84h5tCR9vQMFx-14">
          <mxGeometry y="80" width="180" height="30" as="geometry" />
        </mxCell>
        <mxCell id="mdlQwKb84h5tCR9vQMFx-22" value="" style="shape=partialRectangle;connectable=0;fillColor=none;top=0;left=0;bottom=0;right=0;editable=1;overflow=hidden;" vertex="1" parent="mdlQwKb84h5tCR9vQMFx-21">
          <mxGeometry width="30" height="30" as="geometry" />
        </mxCell>
        <mxCell id="mdlQwKb84h5tCR9vQMFx-23" value="Row 2" style="shape=partialRectangle;connectable=0;fillColor=none;top=0;left=0;bottom=0;right=0;align=left;spacingLeft=6;overflow=hidden;" vertex="1" parent="mdlQwKb84h5tCR9vQMFx-21">
          <mxGeometry x="30" width="150" height="30" as="geometry" />
        </mxCell>
        <mxCell id="mdlQwKb84h5tCR9vQMFx-24" value="" style="shape=partialRectangle;collapsible=0;dropTarget=0;pointerEvents=0;fillColor=none;top=0;left=0;bottom=0;right=0;points=[[0,0.5],[1,0.5]];portConstraint=eastwest;" vertex="1" parent="mdlQwKb84h5tCR9vQMFx-14">
          <mxGeometry y="110" width="180" height="30" as="geometry" />
        </mxCell>
        <mxCell id="mdlQwKb84h5tCR9vQMFx-25" value="" style="shape=partialRectangle;connectable=0;fillColor=none;top=0;left=0;bottom=0;right=0;editable=1;overflow=hidden;" vertex="1" parent="mdlQwKb84h5tCR9vQMFx-24">
          <mxGeometry width="30" height="30" as="geometry" />
        </mxCell>
        <mxCell id="mdlQwKb84h5tCR9vQMFx-26" value="Row 3" style="shape=partialRectangle;connectable=0;fillColor=none;top=0;left=0;bottom=0;right=0;align=left;spacingLeft=6;overflow=hidden;" vertex="1" parent="mdlQwKb84h5tCR9vQMFx-24">
          <mxGeometry x="30" width="150" height="30" as="geometry" />
        </mxCell>
        <mxCell id="mdlQwKb84h5tCR9vQMFx-61" value="" style="edgeStyle=entityRelationEdgeStyle;fontSize=12;html=1;endArrow=ERzeroToMany;endFill=1;startArrow=ERzeroToMany;entryX=0;entryY=0.5;entryDx=0;entryDy=0;" edge="1" parent="1" target="mdlQwKb84h5tCR9vQMFx-5">
          <mxGeometry width="100" height="100" relative="1" as="geometry">
            <mxPoint x="270" y="120" as="sourcePoint" />
            <mxPoint x="390" y="120" as="targetPoint" />
          </mxGeometry>
        </mxCell>
        <mxCell id="mdlQwKb84h5tCR9vQMFx-62" value="" style="endArrow=none;html=1;rounded=0;dashed=1;dashPattern=1 2;" edge="1" parent="1">
          <mxGeometry relative="1" as="geometry">
            <mxPoint x="300" y="310" as="sourcePoint" />
            <mxPoint x="460" y="310" as="targetPoint" />
          </mxGeometry>
        </mxCell>
        <mxCell id="mdlQwKb84h5tCR9vQMFx-63" value="1" style="resizable=0;html=1;align=right;verticalAlign=bottom;" connectable="0" vertex="1" parent="mdlQwKb84h5tCR9vQMFx-62">
          <mxGeometry x="1" relative="1" as="geometry" />
        </mxCell>
        <mxCell id="mdlQwKb84h5tCR9vQMFx-64" value="" style="endArrow=none;html=1;rounded=0;dashed=1;dashPattern=1 2;" edge="1" parent="1">
          <mxGeometry relative="1" as="geometry">
            <mxPoint x="300" y="310" as="sourcePoint" />
            <mxPoint x="460" y="310" as="targetPoint" />
          </mxGeometry>
        </mxCell>
        <mxCell id="mdlQwKb84h5tCR9vQMFx-65" value="1" style="resizable=0;html=1;align=right;verticalAlign=bottom;" connectable="0" vertex="1" parent="mdlQwKb84h5tCR9vQMFx-64">
          <mxGeometry x="1" relative="1" as="geometry" />
        </mxCell>
        <mxCell id="bAAhYgV04LeSds4EKRLH-1" value="Users" style="shape=table;startSize=30;container=1;collapsible=1;childLayout=tableLayout;fixedRows=1;rowLines=0;fontStyle=1;align=center;resizeLast=1;" parent="1" vertex="1">
          <mxGeometry x="100" y="50" width="180" height="160" as="geometry" />
        </mxCell>
        <mxCell id="bAAhYgV04LeSds4EKRLH-2" value="" style="shape=partialRectangle;collapsible=0;dropTarget=0;pointerEvents=0;fillColor=none;top=0;left=0;bottom=1;right=0;points=[[0,0.5],[1,0.5]];portConstraint=eastwest;" parent="bAAhYgV04LeSds4EKRLH-1" vertex="1">
          <mxGeometry y="30" width="180" height="30" as="geometry" />
        </mxCell>
        <mxCell id="bAAhYgV04LeSds4EKRLH-3" value="PK" style="shape=partialRectangle;connectable=0;fillColor=none;top=0;left=0;bottom=0;right=0;fontStyle=1;overflow=hidden;" parent="bAAhYgV04LeSds4EKRLH-2" vertex="1">
          <mxGeometry width="30" height="30" as="geometry" />
        </mxCell>
        <mxCell id="bAAhYgV04LeSds4EKRLH-4" value="id" style="shape=partialRectangle;connectable=0;fillColor=none;top=0;left=0;bottom=0;right=0;align=left;spacingLeft=6;fontStyle=5;overflow=hidden;" parent="bAAhYgV04LeSds4EKRLH-2" vertex="1">
          <mxGeometry x="30" width="150" height="30" as="geometry" />
        </mxCell>
        <mxCell id="bAAhYgV04LeSds4EKRLH-5" value="" style="shape=partialRectangle;collapsible=0;dropTarget=0;pointerEvents=0;fillColor=none;top=0;left=0;bottom=0;right=0;points=[[0,0.5],[1,0.5]];portConstraint=eastwest;" parent="bAAhYgV04LeSds4EKRLH-1" vertex="1">
          <mxGeometry y="60" width="180" height="30" as="geometry" />
        </mxCell>
        <mxCell id="bAAhYgV04LeSds4EKRLH-6" value="" style="shape=partialRectangle;connectable=0;fillColor=none;top=0;left=0;bottom=0;right=0;editable=1;overflow=hidden;" parent="bAAhYgV04LeSds4EKRLH-5" vertex="1">
          <mxGeometry width="30" height="30" as="geometry" />
        </mxCell>
        <mxCell id="bAAhYgV04LeSds4EKRLH-7" value="username" style="shape=partialRectangle;connectable=0;fillColor=none;top=0;left=0;bottom=0;right=0;align=left;spacingLeft=6;overflow=hidden;" parent="bAAhYgV04LeSds4EKRLH-5" vertex="1">
          <mxGeometry x="30" width="150" height="30" as="geometry" />
        </mxCell>
        <mxCell id="bAAhYgV04LeSds4EKRLH-8" value="" style="shape=partialRectangle;collapsible=0;dropTarget=0;pointerEvents=0;fillColor=none;top=0;left=0;bottom=0;right=0;points=[[0,0.5],[1,0.5]];portConstraint=eastwest;" parent="bAAhYgV04LeSds4EKRLH-1" vertex="1">
          <mxGeometry y="90" width="180" height="30" as="geometry" />
        </mxCell>
        <mxCell id="bAAhYgV04LeSds4EKRLH-9" value="" style="shape=partialRectangle;connectable=0;fillColor=none;top=0;left=0;bottom=0;right=0;editable=1;overflow=hidden;" parent="bAAhYgV04LeSds4EKRLH-8" vertex="1">
          <mxGeometry width="30" height="30" as="geometry" />
        </mxCell>
        <mxCell id="bAAhYgV04LeSds4EKRLH-10" value="email" style="shape=partialRectangle;connectable=0;fillColor=none;top=0;left=0;bottom=0;right=0;align=left;spacingLeft=6;overflow=hidden;" parent="bAAhYgV04LeSds4EKRLH-8" vertex="1">
          <mxGeometry x="30" width="150" height="30" as="geometry" />
        </mxCell>
        <mxCell id="bAAhYgV04LeSds4EKRLH-11" value="" style="shape=partialRectangle;collapsible=0;dropTarget=0;pointerEvents=0;fillColor=none;top=0;left=0;bottom=0;right=0;points=[[0,0.5],[1,0.5]];portConstraint=eastwest;" parent="bAAhYgV04LeSds4EKRLH-1" vertex="1">
          <mxGeometry y="120" width="180" height="30" as="geometry" />
        </mxCell>
        <mxCell id="bAAhYgV04LeSds4EKRLH-12" value="" style="shape=partialRectangle;connectable=0;fillColor=none;top=0;left=0;bottom=0;right=0;editable=1;overflow=hidden;" parent="bAAhYgV04LeSds4EKRLH-11" vertex="1">
          <mxGeometry width="30" height="30" as="geometry" />
        </mxCell>
        <mxCell id="bAAhYgV04LeSds4EKRLH-13" value="password" style="shape=partialRectangle;connectable=0;fillColor=none;top=0;left=0;bottom=0;right=0;align=left;spacingLeft=6;overflow=hidden;" parent="bAAhYgV04LeSds4EKRLH-11" vertex="1">
          <mxGeometry x="30" width="150" height="30" as="geometry" />
        </mxCell>
        <mxCell id="mdlQwKb84h5tCR9vQMFx-1" value="Topics" style="shape=table;startSize=30;container=1;collapsible=1;childLayout=tableLayout;fixedRows=1;rowLines=0;fontStyle=1;align=center;resizeLast=1;" vertex="1" parent="1">
          <mxGeometry x="580" y="40" width="180" height="160" as="geometry" />
        </mxCell>
        <mxCell id="mdlQwKb84h5tCR9vQMFx-2" value="" style="shape=partialRectangle;collapsible=0;dropTarget=0;pointerEvents=0;fillColor=none;top=0;left=0;bottom=1;right=0;points=[[0,0.5],[1,0.5]];portConstraint=eastwest;" vertex="1" parent="mdlQwKb84h5tCR9vQMFx-1">
          <mxGeometry y="30" width="180" height="30" as="geometry" />
        </mxCell>
        <mxCell id="mdlQwKb84h5tCR9vQMFx-3" value="PK" style="shape=partialRectangle;connectable=0;fillColor=none;top=0;left=0;bottom=0;right=0;fontStyle=1;overflow=hidden;" vertex="1" parent="mdlQwKb84h5tCR9vQMFx-2">
          <mxGeometry width="30" height="30" as="geometry" />
        </mxCell>
        <mxCell id="mdlQwKb84h5tCR9vQMFx-4" value="id" style="shape=partialRectangle;connectable=0;fillColor=none;top=0;left=0;bottom=0;right=0;align=left;spacingLeft=6;fontStyle=5;overflow=hidden;" vertex="1" parent="mdlQwKb84h5tCR9vQMFx-2">
          <mxGeometry x="30" width="150" height="30" as="geometry" />
        </mxCell>
        <mxCell id="mdlQwKb84h5tCR9vQMFx-5" value="" style="shape=partialRectangle;collapsible=0;dropTarget=0;pointerEvents=0;fillColor=none;top=0;left=0;bottom=0;right=0;points=[[0,0.5],[1,0.5]];portConstraint=eastwest;" vertex="1" parent="mdlQwKb84h5tCR9vQMFx-1">
          <mxGeometry y="60" width="180" height="30" as="geometry" />
        </mxCell>
        <mxCell id="mdlQwKb84h5tCR9vQMFx-6" value="" style="shape=partialRectangle;connectable=0;fillColor=none;top=0;left=0;bottom=0;right=0;editable=1;overflow=hidden;" vertex="1" parent="mdlQwKb84h5tCR9vQMFx-5">
          <mxGeometry width="30" height="30" as="geometry" />
        </mxCell>
        <mxCell id="mdlQwKb84h5tCR9vQMFx-7" value="Row 1" style="shape=partialRectangle;connectable=0;fillColor=none;top=0;left=0;bottom=0;right=0;align=left;spacingLeft=6;overflow=hidden;" vertex="1" parent="mdlQwKb84h5tCR9vQMFx-5">
          <mxGeometry x="30" width="150" height="30" as="geometry" />
        </mxCell>
        <mxCell id="mdlQwKb84h5tCR9vQMFx-8" value="" style="shape=partialRectangle;collapsible=0;dropTarget=0;pointerEvents=0;fillColor=none;top=0;left=0;bottom=0;right=0;points=[[0,0.5],[1,0.5]];portConstraint=eastwest;" vertex="1" parent="mdlQwKb84h5tCR9vQMFx-1">
          <mxGeometry y="90" width="180" height="30" as="geometry" />
        </mxCell>
        <mxCell id="mdlQwKb84h5tCR9vQMFx-9" value="" style="shape=partialRectangle;connectable=0;fillColor=none;top=0;left=0;bottom=0;right=0;editable=1;overflow=hidden;" vertex="1" parent="mdlQwKb84h5tCR9vQMFx-8">
          <mxGeometry width="30" height="30" as="geometry" />
        </mxCell>
        <mxCell id="mdlQwKb84h5tCR9vQMFx-10" value="Row 2" style="shape=partialRectangle;connectable=0;fillColor=none;top=0;left=0;bottom=0;right=0;align=left;spacingLeft=6;overflow=hidden;" vertex="1" parent="mdlQwKb84h5tCR9vQMFx-8">
          <mxGeometry x="30" width="150" height="30" as="geometry" />
        </mxCell>
        <mxCell id="mdlQwKb84h5tCR9vQMFx-11" value="" style="shape=partialRectangle;collapsible=0;dropTarget=0;pointerEvents=0;fillColor=none;top=0;left=0;bottom=0;right=0;points=[[0,0.5],[1,0.5]];portConstraint=eastwest;" vertex="1" parent="mdlQwKb84h5tCR9vQMFx-1">
          <mxGeometry y="120" width="180" height="30" as="geometry" />
        </mxCell>
        <mxCell id="mdlQwKb84h5tCR9vQMFx-12" value="" style="shape=partialRectangle;connectable=0;fillColor=none;top=0;left=0;bottom=0;right=0;editable=1;overflow=hidden;" vertex="1" parent="mdlQwKb84h5tCR9vQMFx-11">
          <mxGeometry width="30" height="30" as="geometry" />
        </mxCell>
        <mxCell id="mdlQwKb84h5tCR9vQMFx-13" value="Row 3" style="shape=partialRectangle;connectable=0;fillColor=none;top=0;left=0;bottom=0;right=0;align=left;spacingLeft=6;overflow=hidden;" vertex="1" parent="mdlQwKb84h5tCR9vQMFx-11">
          <mxGeometry x="30" width="150" height="30" as="geometry" />
        </mxCell>
        <mxCell id="mdlQwKb84h5tCR9vQMFx-73" value="" style="fontSize=12;html=1;endArrow=ERzeroToMany;endFill=1;startArrow=ERzeroToMany;entryX=0.5;entryY=1;entryDx=0;entryDy=0;exitX=0.5;exitY=0;exitDx=0;exitDy=0;" edge="1" parent="1" source="mdlQwKb84h5tCR9vQMFx-40" target="bAAhYgV04LeSds4EKRLH-1">
          <mxGeometry width="100" height="100" relative="1" as="geometry">
            <mxPoint x="190" y="391" as="sourcePoint" />
            <mxPoint x="220" y="240" as="targetPoint" />
          </mxGeometry>
        </mxCell>
        <mxCell id="mdlQwKb84h5tCR9vQMFx-40" value="Languages" style="shape=table;startSize=30;container=1;collapsible=1;childLayout=tableLayout;fixedRows=1;rowLines=0;fontStyle=1;align=center;resizeLast=1;" vertex="1" parent="1">
          <mxGeometry x="100" y="410" width="180" height="160" as="geometry" />
        </mxCell>
        <mxCell id="mdlQwKb84h5tCR9vQMFx-41" value="" style="shape=partialRectangle;collapsible=0;dropTarget=0;pointerEvents=0;fillColor=none;top=0;left=0;bottom=1;right=0;points=[[0,0.5],[1,0.5]];portConstraint=eastwest;" vertex="1" parent="mdlQwKb84h5tCR9vQMFx-40">
          <mxGeometry y="30" width="180" height="30" as="geometry" />
        </mxCell>
        <mxCell id="mdlQwKb84h5tCR9vQMFx-42" value="PK" style="shape=partialRectangle;connectable=0;fillColor=none;top=0;left=0;bottom=0;right=0;fontStyle=1;overflow=hidden;" vertex="1" parent="mdlQwKb84h5tCR9vQMFx-41">
          <mxGeometry width="30" height="30" as="geometry" />
        </mxCell>
        <mxCell id="mdlQwKb84h5tCR9vQMFx-43" value="id" style="shape=partialRectangle;connectable=0;fillColor=none;top=0;left=0;bottom=0;right=0;align=left;spacingLeft=6;fontStyle=5;overflow=hidden;" vertex="1" parent="mdlQwKb84h5tCR9vQMFx-41">
          <mxGeometry x="30" width="150" height="30" as="geometry" />
        </mxCell>
        <mxCell id="mdlQwKb84h5tCR9vQMFx-44" value="" style="shape=partialRectangle;collapsible=0;dropTarget=0;pointerEvents=0;fillColor=none;top=0;left=0;bottom=0;right=0;points=[[0,0.5],[1,0.5]];portConstraint=eastwest;" vertex="1" parent="mdlQwKb84h5tCR9vQMFx-40">
          <mxGeometry y="60" width="180" height="30" as="geometry" />
        </mxCell>
        <mxCell id="mdlQwKb84h5tCR9vQMFx-45" value="" style="shape=partialRectangle;connectable=0;fillColor=none;top=0;left=0;bottom=0;right=0;editable=1;overflow=hidden;" vertex="1" parent="mdlQwKb84h5tCR9vQMFx-44">
          <mxGeometry width="30" height="30" as="geometry" />
        </mxCell>
        <mxCell id="mdlQwKb84h5tCR9vQMFx-46" value="name" style="shape=partialRectangle;connectable=0;fillColor=none;top=0;left=0;bottom=0;right=0;align=left;spacingLeft=6;overflow=hidden;" vertex="1" parent="mdlQwKb84h5tCR9vQMFx-44">
          <mxGeometry x="30" width="150" height="30" as="geometry" />
        </mxCell>
        <mxCell id="mdlQwKb84h5tCR9vQMFx-47" value="" style="shape=partialRectangle;collapsible=0;dropTarget=0;pointerEvents=0;fillColor=none;top=0;left=0;bottom=0;right=0;points=[[0,0.5],[1,0.5]];portConstraint=eastwest;" vertex="1" parent="mdlQwKb84h5tCR9vQMFx-40">
          <mxGeometry y="90" width="180" height="30" as="geometry" />
        </mxCell>
        <mxCell id="mdlQwKb84h5tCR9vQMFx-48" value="" style="shape=partialRectangle;connectable=0;fillColor=none;top=0;left=0;bottom=0;right=0;editable=1;overflow=hidden;" vertex="1" parent="mdlQwKb84h5tCR9vQMFx-47">
          <mxGeometry width="30" height="30" as="geometry" />
        </mxCell>
        <mxCell id="mdlQwKb84h5tCR9vQMFx-49" value="Row 2" style="shape=partialRectangle;connectable=0;fillColor=none;top=0;left=0;bottom=0;right=0;align=left;spacingLeft=6;overflow=hidden;" vertex="1" parent="mdlQwKb84h5tCR9vQMFx-47">
          <mxGeometry x="30" width="150" height="30" as="geometry" />
        </mxCell>
        <mxCell id="mdlQwKb84h5tCR9vQMFx-50" value="" style="shape=partialRectangle;collapsible=0;dropTarget=0;pointerEvents=0;fillColor=none;top=0;left=0;bottom=0;right=0;points=[[0,0.5],[1,0.5]];portConstraint=eastwest;" vertex="1" parent="mdlQwKb84h5tCR9vQMFx-40">
          <mxGeometry y="120" width="180" height="30" as="geometry" />
        </mxCell>
        <mxCell id="mdlQwKb84h5tCR9vQMFx-51" value="" style="shape=partialRectangle;connectable=0;fillColor=none;top=0;left=0;bottom=0;right=0;editable=1;overflow=hidden;" vertex="1" parent="mdlQwKb84h5tCR9vQMFx-50">
          <mxGeometry width="30" height="30" as="geometry" />
        </mxCell>
        <mxCell id="mdlQwKb84h5tCR9vQMFx-52" value="Row 3" style="shape=partialRectangle;connectable=0;fillColor=none;top=0;left=0;bottom=0;right=0;align=left;spacingLeft=6;overflow=hidden;" vertex="1" parent="mdlQwKb84h5tCR9vQMFx-50">
          <mxGeometry x="30" width="150" height="30" as="geometry" />
        </mxCell>
        <mxCell id="mdlQwKb84h5tCR9vQMFx-74" value="" style="edgeStyle=orthogonalEdgeStyle;fontSize=12;html=1;endArrow=ERzeroToMany;endFill=1;startArrow=ERzeroToMany;exitX=1.003;exitY=-0.08;exitDx=0;exitDy=0;exitPerimeter=0;" edge="1" parent="1" source="mdlQwKb84h5tCR9vQMFx-21">
          <mxGeometry width="100" height="100" relative="1" as="geometry">
            <mxPoint x="550" y="320" as="sourcePoint" />
            <mxPoint x="660" y="200" as="targetPoint" />
          </mxGeometry>
        </mxCell>
        <mxCell id="mdlQwKb84h5tCR9vQMFx-79" value="Resource Subsections" style="shape=table;startSize=30;container=1;collapsible=1;childLayout=tableLayout;fixedRows=1;rowLines=0;fontStyle=1;align=center;resizeLast=1;" vertex="1" parent="1">
          <mxGeometry x="350" y="590" width="180" height="160" as="geometry" />
        </mxCell>
        <mxCell id="mdlQwKb84h5tCR9vQMFx-80" value="" style="shape=partialRectangle;collapsible=0;dropTarget=0;pointerEvents=0;fillColor=none;top=0;left=0;bottom=1;right=0;points=[[0,0.5],[1,0.5]];portConstraint=eastwest;" vertex="1" parent="mdlQwKb84h5tCR9vQMFx-79">
          <mxGeometry y="30" width="180" height="30" as="geometry" />
        </mxCell>
        <mxCell id="mdlQwKb84h5tCR9vQMFx-81" value="PK" style="shape=partialRectangle;connectable=0;fillColor=none;top=0;left=0;bottom=0;right=0;fontStyle=1;overflow=hidden;" vertex="1" parent="mdlQwKb84h5tCR9vQMFx-80">
          <mxGeometry width="30" height="30" as="geometry" />
        </mxCell>
        <mxCell id="mdlQwKb84h5tCR9vQMFx-82" value="id" style="shape=partialRectangle;connectable=0;fillColor=none;top=0;left=0;bottom=0;right=0;align=left;spacingLeft=6;fontStyle=5;overflow=hidden;" vertex="1" parent="mdlQwKb84h5tCR9vQMFx-80">
          <mxGeometry x="30" width="150" height="30" as="geometry" />
        </mxCell>
        <mxCell id="mdlQwKb84h5tCR9vQMFx-83" value="" style="shape=partialRectangle;collapsible=0;dropTarget=0;pointerEvents=0;fillColor=none;top=0;left=0;bottom=0;right=0;points=[[0,0.5],[1,0.5]];portConstraint=eastwest;" vertex="1" parent="mdlQwKb84h5tCR9vQMFx-79">
          <mxGeometry y="60" width="180" height="30" as="geometry" />
        </mxCell>
        <mxCell id="mdlQwKb84h5tCR9vQMFx-84" value="" style="shape=partialRectangle;connectable=0;fillColor=none;top=0;left=0;bottom=0;right=0;editable=1;overflow=hidden;" vertex="1" parent="mdlQwKb84h5tCR9vQMFx-83">
          <mxGeometry width="30" height="30" as="geometry" />
        </mxCell>
        <mxCell id="mdlQwKb84h5tCR9vQMFx-85" value="type" style="shape=partialRectangle;connectable=0;fillColor=none;top=0;left=0;bottom=0;right=0;align=left;spacingLeft=6;overflow=hidden;" vertex="1" parent="mdlQwKb84h5tCR9vQMFx-83">
          <mxGeometry x="30" width="150" height="30" as="geometry" />
        </mxCell>
        <mxCell id="mdlQwKb84h5tCR9vQMFx-86" value="" style="shape=partialRectangle;collapsible=0;dropTarget=0;pointerEvents=0;fillColor=none;top=0;left=0;bottom=0;right=0;points=[[0,0.5],[1,0.5]];portConstraint=eastwest;" vertex="1" parent="mdlQwKb84h5tCR9vQMFx-79">
          <mxGeometry y="90" width="180" height="30" as="geometry" />
        </mxCell>
        <mxCell id="mdlQwKb84h5tCR9vQMFx-87" value="" style="shape=partialRectangle;connectable=0;fillColor=none;top=0;left=0;bottom=0;right=0;editable=1;overflow=hidden;" vertex="1" parent="mdlQwKb84h5tCR9vQMFx-86">
          <mxGeometry width="30" height="30" as="geometry" />
        </mxCell>
        <mxCell id="mdlQwKb84h5tCR9vQMFx-88" value="locator" style="shape=partialRectangle;connectable=0;fillColor=none;top=0;left=0;bottom=0;right=0;align=left;spacingLeft=6;overflow=hidden;" vertex="1" parent="mdlQwKb84h5tCR9vQMFx-86">
          <mxGeometry x="30" width="150" height="30" as="geometry" />
        </mxCell>
        <mxCell id="mdlQwKb84h5tCR9vQMFx-89" value="" style="shape=partialRectangle;collapsible=0;dropTarget=0;pointerEvents=0;fillColor=none;top=0;left=0;bottom=0;right=0;points=[[0,0.5],[1,0.5]];portConstraint=eastwest;" vertex="1" parent="mdlQwKb84h5tCR9vQMFx-79">
          <mxGeometry y="120" width="180" height="30" as="geometry" />
        </mxCell>
        <mxCell id="mdlQwKb84h5tCR9vQMFx-90" value="" style="shape=partialRectangle;connectable=0;fillColor=none;top=0;left=0;bottom=0;right=0;editable=1;overflow=hidden;" vertex="1" parent="mdlQwKb84h5tCR9vQMFx-89">
          <mxGeometry width="30" height="30" as="geometry" />
        </mxCell>
        <mxCell id="mdlQwKb84h5tCR9vQMFx-91" value="Row 3" style="shape=partialRectangle;connectable=0;fillColor=none;top=0;left=0;bottom=0;right=0;align=left;spacingLeft=6;overflow=hidden;" vertex="1" parent="mdlQwKb84h5tCR9vQMFx-89">
          <mxGeometry x="30" width="150" height="30" as="geometry" />
        </mxCell>
        <mxCell id="mdlQwKb84h5tCR9vQMFx-92" value="" style="fontSize=12;html=1;endArrow=ERoneToMany;startArrow=ERmandOne;edgeStyle=orthogonalEdgeStyle;entryX=1;entryY=0.5;entryDx=0;entryDy=0;exitX=0.5;exitY=1;exitDx=0;exitDy=0;" edge="1" parent="1" source="mdlQwKb84h5tCR9vQMFx-27" target="mdlQwKb84h5tCR9vQMFx-83">
          <mxGeometry width="100" height="100" relative="1" as="geometry">
            <mxPoint x="670" y="580" as="sourcePoint" />
            <mxPoint x="550" y="710" as="targetPoint" />
            <Array as="points">
              <mxPoint x="670" y="550" />
              <mxPoint x="670" y="665" />
            </Array>
          </mxGeometry>
        </mxCell>
        <mxCell id="mdlQwKb84h5tCR9vQMFx-93" value="" style="edgeStyle=orthogonalEdgeStyle;fontSize=12;html=1;endArrow=ERoneToMany;startArrow=ERzeroToMany;exitX=0;exitY=0.5;exitDx=0;exitDy=0;entryX=0.5;entryY=1;entryDx=0;entryDy=0;" edge="1" parent="1" source="mdlQwKb84h5tCR9vQMFx-31" target="mdlQwKb84h5tCR9vQMFx-14">
          <mxGeometry width="100" height="100" relative="1" as="geometry">
            <mxPoint x="330" y="490" as="sourcePoint" />
            <mxPoint x="430" y="400" as="targetPoint" />
          </mxGeometry>
        </mxCell>
        <mxCell id="mdlQwKb84h5tCR9vQMFx-94" value="" style="fontSize=12;html=1;endArrow=ERoneToMany;startArrow=ERzeroToMany;exitX=0.016;exitY=0.057;exitDx=0;exitDy=0;entryX=1;entryY=0.5;entryDx=0;entryDy=0;exitPerimeter=0;" edge="1" parent="1" source="mdlQwKb84h5tCR9vQMFx-37" target="mdlQwKb84h5tCR9vQMFx-47">
          <mxGeometry width="100" height="100" relative="1" as="geometry">
            <mxPoint x="520" y="515" as="sourcePoint" />
            <mxPoint x="370" y="440" as="targetPoint" />
          </mxGeometry>
        </mxCell>
        <mxCell id="mdlQwKb84h5tCR9vQMFx-27" value="External Resources" style="shape=table;startSize=30;container=1;collapsible=1;childLayout=tableLayout;fixedRows=1;rowLines=0;fontStyle=1;align=center;resizeLast=1;" vertex="1" parent="1">
          <mxGeometry x="580" y="390" width="180" height="160" as="geometry" />
        </mxCell>
        <mxCell id="mdlQwKb84h5tCR9vQMFx-28" value="" style="shape=partialRectangle;collapsible=0;dropTarget=0;pointerEvents=0;fillColor=none;top=0;left=0;bottom=1;right=0;points=[[0,0.5],[1,0.5]];portConstraint=eastwest;" vertex="1" parent="mdlQwKb84h5tCR9vQMFx-27">
          <mxGeometry y="30" width="180" height="30" as="geometry" />
        </mxCell>
        <mxCell id="mdlQwKb84h5tCR9vQMFx-29" value="PK" style="shape=partialRectangle;connectable=0;fillColor=none;top=0;left=0;bottom=0;right=0;fontStyle=1;overflow=hidden;" vertex="1" parent="mdlQwKb84h5tCR9vQMFx-28">
          <mxGeometry width="30" height="30" as="geometry" />
        </mxCell>
        <mxCell id="mdlQwKb84h5tCR9vQMFx-30" value="id" style="shape=partialRectangle;connectable=0;fillColor=none;top=0;left=0;bottom=0;right=0;align=left;spacingLeft=6;fontStyle=5;overflow=hidden;" vertex="1" parent="mdlQwKb84h5tCR9vQMFx-28">
          <mxGeometry x="30" width="150" height="30" as="geometry" />
        </mxCell>
        <mxCell id="mdlQwKb84h5tCR9vQMFx-31" value="" style="shape=partialRectangle;collapsible=0;dropTarget=0;pointerEvents=0;fillColor=none;top=0;left=0;bottom=0;right=0;points=[[0,0.5],[1,0.5]];portConstraint=eastwest;" vertex="1" parent="mdlQwKb84h5tCR9vQMFx-27">
          <mxGeometry y="60" width="180" height="30" as="geometry" />
        </mxCell>
        <mxCell id="mdlQwKb84h5tCR9vQMFx-32" value="" style="shape=partialRectangle;connectable=0;fillColor=none;top=0;left=0;bottom=0;right=0;editable=1;overflow=hidden;" vertex="1" parent="mdlQwKb84h5tCR9vQMFx-31">
          <mxGeometry width="30" height="30" as="geometry" />
        </mxCell>
        <mxCell id="mdlQwKb84h5tCR9vQMFx-33" value="url" style="shape=partialRectangle;connectable=0;fillColor=none;top=0;left=0;bottom=0;right=0;align=left;spacingLeft=6;overflow=hidden;" vertex="1" parent="mdlQwKb84h5tCR9vQMFx-31">
          <mxGeometry x="30" width="150" height="30" as="geometry" />
        </mxCell>
        <mxCell id="mdlQwKb84h5tCR9vQMFx-34" value="" style="shape=partialRectangle;collapsible=0;dropTarget=0;pointerEvents=0;fillColor=none;top=0;left=0;bottom=0;right=0;points=[[0,0.5],[1,0.5]];portConstraint=eastwest;" vertex="1" parent="mdlQwKb84h5tCR9vQMFx-27">
          <mxGeometry y="90" width="180" height="30" as="geometry" />
        </mxCell>
        <mxCell id="mdlQwKb84h5tCR9vQMFx-35" value="" style="shape=partialRectangle;connectable=0;fillColor=none;top=0;left=0;bottom=0;right=0;editable=1;overflow=hidden;" vertex="1" parent="mdlQwKb84h5tCR9vQMFx-34">
          <mxGeometry width="30" height="30" as="geometry" />
        </mxCell>
        <mxCell id="mdlQwKb84h5tCR9vQMFx-36" value="name" style="shape=partialRectangle;connectable=0;fillColor=none;top=0;left=0;bottom=0;right=0;align=left;spacingLeft=6;overflow=hidden;" vertex="1" parent="mdlQwKb84h5tCR9vQMFx-34">
          <mxGeometry x="30" width="150" height="30" as="geometry" />
        </mxCell>
        <mxCell id="mdlQwKb84h5tCR9vQMFx-37" value="" style="shape=partialRectangle;collapsible=0;dropTarget=0;pointerEvents=0;fillColor=none;top=0;left=0;bottom=0;right=0;points=[[0,0.5],[1,0.5]];portConstraint=eastwest;" vertex="1" parent="mdlQwKb84h5tCR9vQMFx-27">
          <mxGeometry y="120" width="180" height="30" as="geometry" />
        </mxCell>
        <mxCell id="mdlQwKb84h5tCR9vQMFx-38" value="" style="shape=partialRectangle;connectable=0;fillColor=none;top=0;left=0;bottom=0;right=0;editable=1;overflow=hidden;" vertex="1" parent="mdlQwKb84h5tCR9vQMFx-37">
          <mxGeometry width="30" height="30" as="geometry" />
        </mxCell>
        <mxCell id="mdlQwKb84h5tCR9vQMFx-39" value="Row 3" style="shape=partialRectangle;connectable=0;fillColor=none;top=0;left=0;bottom=0;right=0;align=left;spacingLeft=6;overflow=hidden;" vertex="1" parent="mdlQwKb84h5tCR9vQMFx-37">
          <mxGeometry x="30" width="150" height="30" as="geometry" />
        </mxCell>
      </root>
    </mxGraphModel>
  </diagram>
</mxfile>
